<?xml version="1.0" encoding="utf-8"?>
<svg version="1.1" xmlns:xlink="http://www.w3.org/1999/xlink" width="217px" height="217px" xmlns="http://www.w3.org/2000/svg">
  <g transform="matrix(1 0 0 1 -1159 -258 )">
    <path d="M 1267.5 258  C 1328.26 258  1376 305.74  1376 366.5  C 1376 427.26  1328.26 475  1267.5 475  C 1206.74 475  1159 427.26  1159 366.5  C 1159 305.74  1206.74 258  1267.5 258  Z " fill-rule="nonzero" fill="#ffffff" stroke="none" />
    <path d="M 1267.5 258.5  C 1327.98 258.5  1375.5 306.02  1375.5 366.5  C 1375.5 426.98  1327.98 474.5  1267.5 474.5  C 1207.02 474.5  1159.5 426.98  1159.5 366.5  C 1159.5 306.02  1207.02 258.5  1267.5 258.5  Z " stroke-width="1" stroke="#797979" fill="none" />
  </g>
</svg>