<svg t="1564561108941" class="icon" viewBox="0 0 1025 1024" version="1.1" xmlns="http://www.w3.org/2000/svg" p-id="2255" width="200" height="200"><path d="M874.020877 874.019125c-199.931835 199.974501-524.106414 199.974501-724.038249 0-199.974501-199.931835-199.974501-524.106414 0-724.03825 199.931835-199.974501 524.106414-199.974501 724.038249 0 199.974501 199.931835 199.974501 524.106414 0 724.03825zM813.691467 210.310285C647.081605 43.700423 376.9219 43.700423 210.312037 210.310285 43.702175 376.920147 43.702175 647.079853 210.312037 813.689715c166.609862 166.609862 436.769567 166.609862 603.37943 0 166.609862-166.609862 166.609862-436.769567 0-603.37943zM726.951941 719.398346l-7.551843 7.551843a37.28989 37.28989 0 0 1-52.777567 0l-154.620779-154.620779-150.86619 150.86619a42.665778 42.665778 0 0 1-60.32941-60.372075l150.86619-150.823525-154.620778-154.620779a37.28989 37.28989 0 0 1 0-52.777567l7.551842-7.551843a37.28989 37.28989 0 0 1 52.777567 0l154.620779 154.620779 150.866191-150.86619a42.665778 42.665778 0 0 1 60.329409 60.32941l-150.86619 150.86619 154.620779 154.620779a37.28989 37.28989 0 0 1 0 52.777567z" p-id="2256" fill="#8a8a8a"></path></svg>