<svg t="1564713650343" class="icon" viewBox="0 0 1024 1024" version="1.1" xmlns="http://www.w3.org/2000/svg" p-id="2036" width="200" height="200"><path d="M515.479165 66.922754c-243.541521 0-441.035275 197.391426-441.035276 441.035275s197.391426 441.035275 441.035276 441.035276 441.035275-197.391426 441.035275-441.035276-197.493754-441.035275-441.035275-441.035275z m266.770061 336.251024L486.315579 699.107425c-7.776956 7.776956-17.907465 11.665434-28.037973 11.665434-10.130509 0-20.261017-3.888478-28.037974-11.665434L285.035675 554.005796c-15.553912-15.451584-15.553912-40.624363 0-56.075947 15.553912-15.553912 40.624363-15.553912 56.075947 0l117.063655 117.063656 267.793345-267.793345c15.553912-15.553912 40.624363-15.553912 56.075947 0 15.656241 15.349256 15.656241 40.522035 0.204657 55.973618z" p-id="2037" fill="#707070"></path></svg>