<?xml version="1.0" encoding="utf-8"?>
<svg version="1.1" xmlns:xlink="http://www.w3.org/1999/xlink" width="65px" height="63px" xmlns="http://www.w3.org/2000/svg">
  <g transform="matrix(1 0 0 1 -152 -285 )">
    <path d="M 152 285  L 217 285  L 217 348  L 152 348  L 152 285  " fill-rule="nonzero" fill="#cccccc" stroke="none" />
    <path d="M 156 289  L 213 289  L 213 344  L 156 344  L 156 289  " fill-rule="nonzero" fill="#ffffff" stroke="none" />
    <path d="M 190.525 303.9  C 187.879 303.9  185.8 301.821  185.8 299.175  C 185.8 296.529  187.879 294.45  190.525 294.45  C 193.171 294.45  195.25 296.529  195.25 299.175  C 195.25 301.821  193.171 303.9  190.525 303.9  " fill-rule="nonzero" fill="#cccccc" stroke="none" />
    <path d="M 158 343  L 158 314.4  L 171.5 301.4  L 190.4 312.76  L 201.2 309.2  L 212 312.76  L 212 343  L 158 343  " fill-rule="nonzero" fill="#169bd5" stroke="none" />
  </g>
</svg>