<svg t="1563170722029" class="icon" viewBox="0 0 1028 1024" version="1.1" xmlns="http://www.w3.org/2000/svg" p-id="4082" height="200" width="200"><path d="M994.118004 702.59481h-255.489022a31.925908 31.925908 0 0 0-31.946347 31.946348v255.489022A31.92182 31.92182 0 0 0 738.628982 1021.956088h255.489022A31.917733 31.917733 0 0 0 1026.043912 990.03018v-255.489022a31.92182 31.92182 0 0 0-31.925908-31.946348z m-31.946347 255.489022H770.55489V766.467066h191.616767v191.616766z m-63.872256-127.744511h-63.872255v63.872256h63.872255v-63.872256z m-606.796647-127.744511h-255.489021A31.92182 31.92182 0 0 0 4.087824 734.541158v255.489022A31.917733 31.917733 0 0 0 36.013733 1021.956088h255.489021a31.92182 31.92182 0 0 0 31.946348-31.925908v-255.489022a31.925908 31.925908 0 0 0-31.946348-31.946348z m-31.925908 255.489022H67.96008V766.467066H259.576846v191.616766z m-63.872255-127.744511H131.832335v63.872256h63.872256v-63.872256zM291.502754 0h-255.489021A31.917733 31.917733 0 0 0 4.087824 31.925908v255.489022a31.92182 31.92182 0 0 0 31.925909 31.946347h255.489021a31.925908 31.925908 0 0 0 31.946348-31.946347v-255.489022A31.92182 31.92182 0 0 0 291.502754 0zM259.576846 255.489022H67.96008V63.872255H259.576846V255.489022zM195.704591 127.744511H131.832335v63.872255h63.872256V127.744511zM994.118004 0h-255.489022a31.92182 31.92182 0 0 0-31.946347 31.925908v255.489022a31.925908 31.925908 0 0 0 31.946347 31.946347h255.489022A31.92182 31.92182 0 0 0 1026.043912 287.41493v-255.489022A31.917733 31.917733 0 0 0 994.118004 0z m-31.946347 255.489022H770.55489V63.872255h191.616767V255.489022zM898.299401 127.744511h-63.872255v63.872255h63.872255V127.744511zM483.13996 1021.956088h63.851816v-63.872256h-63.851816V1021.956088z m63.851816-63.872256h63.892695V894.211577h-63.892695v63.872255z m63.892695-63.872255h63.851816v-63.872256h-63.851816v63.872256z m-63.892695-63.872256h-63.851816v63.872256h63.851816v-63.872256z m-191.596327 0v63.872256h63.851816v-63.872256h-63.851816z m63.851816 63.872256v63.872255h63.892695V894.211577h-63.892695z m542.924392-351.307625H1026.043912v-63.851816h-63.872255v63.851816z m0-127.744511H898.299401v63.892695h63.872256v-63.892695z m-127.744511-63.851816v63.851816h63.872255v-63.851816h-63.872255z m0 127.744511v63.851816h63.872255v-63.851816h-63.872255z m-351.287186 63.851816h63.851816v-63.851816h-63.851816v63.851816z m-63.892695 0v63.892695h63.892695v-63.892695h-63.892695z m63.892695 127.744511h63.851816v-63.851816h-63.851816v63.851816z m-127.744511 0h63.851816v-63.851816h-63.851816v63.851816z m191.596327-63.851816h63.892695v-63.892695h-63.892695v63.892695z m127.744511-63.892695v-63.851816h-63.851816v63.851816h63.851816z m-319.340838-63.851816v63.851816h63.851816v-63.851816h-63.851816z m319.340838 191.596327v-63.851816h-63.851816v63.851816h63.851816z m-127.744511-191.596327h63.892695v-63.892695h-63.892695v63.892695z m63.892695-63.892695h63.851816v-63.851816h-63.851816v63.851816z m-63.892695-63.851816h-63.851816v63.851816h63.851816v-63.851816z m-191.596327 0v63.851816h63.851816v-63.851816h-63.851816z m127.744511 63.851816h-63.892695v63.892695h63.892695v-63.892695z m351.287186 255.489022h63.872255v-63.851816h-63.872255v63.851816z m63.872255-63.851816h63.872256v-63.892695H898.299401v63.892695z m-830.339321-127.744511H4.087824v63.851816h63.872256v-63.851816z m0 127.744511H131.832335v-63.892695H67.96008v63.892695z m127.744511 63.851816v-63.851816H131.832335v63.851816h63.872256z m0-127.744511v-63.851816H131.832335v63.851816h63.872256z m0-191.596327H131.832335v63.851816h63.872256v-63.851816zM131.832335 415.159441H67.96008v63.892695H131.832335v-63.892695zM546.991776 0h-63.851816v63.872255h63.851816V0z m-127.744511 63.872255V127.744511h63.892695V63.872255h-63.892695z m-63.851816 127.744511h63.851816V127.744511h-63.851816v63.872255z m127.744511 0h63.851816V127.744511h-63.851816v63.872255z m127.744511 0h63.851816V127.744511h-63.851816v63.872255z m-63.892695-127.744511V127.744511h63.892695V63.872255h-63.892695z" p-id="4083" fill="#707070"></path></svg>