<svg class="icon" viewBox="0 0 1024 1024" version="1.1" xmlns="http://www.w3.org/2000/svg" p-id="1438" height="128" width="128"><path d="M807.127074 186.990435c-7.695491 0-15.390982 2.898302-21.187585 8.794847L195.085692 786.539137c-11.693149 11.693149-11.693149 30.682022 0 42.375171 5.896545 5.896545 13.492094 8.794847 21.187585 8.794847 7.695491 0 15.390982-2.898302 21.187586-8.794847l590.753855-590.753855c11.693149-11.693149 11.693149-30.682022 0-42.375171-5.796604-5.896545-13.492094-8.794847-21.087644-8.794847zM216.872926 186.490728c-7.695491 0-15.390982 2.898302-21.187585 8.794847-11.693149 11.693149-11.693149 30.682022 0 42.375171l590.653913 590.653913c5.896545 5.896545 13.492094 8.794847 21.187586 8.794847s15.390982-2.898302 21.187585-8.794847c11.693149-11.693149 11.693149-30.682022 0-42.37517l-590.653914-590.653914c-5.796604-5.896545-13.492094-8.794847-21.187585-8.794847z" p-id="1439"></path></svg>