<?xml version="1.0" encoding="utf-8"?>
<svg version="1.1" xmlns:xlink="http://www.w3.org/1999/xlink" width="38px" height="278px" xmlns="http://www.w3.org/2000/svg">
  <g transform="matrix(1 0 0 1 -1215 -1055 )">
    <path d="M 1215.1645021645 1316.99294955172  C 1215.1645021645 1316.99294955172  1215.1645021645 1060.75956284153  1215.1645021645 1060.75956284153  C 1215.1645021645 1057.99813909238  1217.40307841535 1055.75956284153  1220.1645021645 1055.75956284153  C 1220.1645021645 1055.75956284153  1248 1055.75956284153  1248 1055.75956284153  C 1250.76142374915 1055.75956284153  1253 1057.99813909238  1253 1060.75956284153  C 1253 1060.75956284153  1253 1316.99294955172  1253 1316.99294955172  C 1253 1319.75437330088  1250.76142374915 1321.99294955172  1248 1321.99294955172  C 1248 1321.99294955172  1243.51762523191 1321.99294955172  1243.51762523191 1321.99294955172  C 1243.51762523191 1321.99294955172  1233.92949907236 1332.84787989784  1233.92949907236 1332.84787989784  C 1233.92949907236 1332.84787989784  1224.51762523191 1321.99294955172  1224.51762523191 1321.99294955172  C 1224.51762523191 1321.99294955172  1220.1645021645 1321.99294955172  1220.1645021645 1321.99294955172  C 1217.40307841535 1321.99294955172  1215.1645021645 1319.75437330088  1215.1645021645 1316.99294955172  Z " fill-rule="nonzero" fill="#2196f3" stroke="none" fill-opacity="0.803921568627451" />
  </g>
</svg>