<?xml version="1.0" encoding="utf-8"?>
<svg version="1.1" xmlns:xlink="http://www.w3.org/1999/xlink" width="38px" height="234px" xmlns="http://www.w3.org/2000/svg">
  <g transform="matrix(1 0 0 1 -682 -962 )">
    <path d="M 682.164502164502 1181.73507264426  C 682.164502164502 1181.73507264426  682.164502164502 967.639344262295  682.164502164502 967.639344262295  C 682.164502164502 964.877920513141  684.403078415348 962.639344262295  687.164502164502 962.639344262295  C 687.164502164502 962.639344262295  715 962.639344262295  715 962.639344262295  C 717.761423749154 962.639344262295  720 964.877920513141  720 967.639344262295  C 720 967.639344262295  720 1181.73507264426  720 1181.73507264426  C 720 1184.49649639341  717.761423749154 1186.73507264426  715 1186.73507264426  C 715 1186.73507264426  710.517625231911 1186.73507264426  710.517625231911 1186.73507264426  C 710.517625231911 1186.73507264426  700.929499072356 1195.87195646078  700.929499072356 1195.87195646078  C 700.929499072356 1195.87195646078  691.517625231911 1186.73507264426  691.517625231911 1186.73507264426  C 691.517625231911 1186.73507264426  687.164502164502 1186.73507264426  687.164502164502 1186.73507264426  C 684.403078415348 1186.73507264426  682.164502164502 1184.49649639341  682.164502164502 1181.73507264426  Z " fill-rule="nonzero" fill="#2196f3" stroke="none" fill-opacity="0.803921568627451" />
  </g>
</svg>