<?xml version="1.0" encoding="utf-8"?>
<svg version="1.1" xmlns:xlink="http://www.w3.org/1999/xlink" width="18px" height="14px" xmlns="http://www.w3.org/2000/svg">
  <g transform="matrix(1 0 0 1 -260 -284 )">
    <path d="M 17.2828557524259 13.837619509915  C 17.5406353841121 13.6211121898019  17.5406353841121 13.271236360499  17.2828557524259 13.0547290403857  C 17.2828557524259 13.0547290403857  12.5170259218106 9.05020964757182  12.5170259218106 9.05020964757182  C 13.4553437811485 8.08718508770835  14.0162722596978 6.85569145090437  14.0080233114838 5.51334606620253  C 13.9894631780024 2.43721006203407  11.0136551098164 -0.025777211573768  7.35112210281831 0.000203666839752259  C 3.75045620742487 0.0261845452533862  0.836515250843583 2.47531535037399  0.809706169148214 5.50122165627613  C 0.782897087452845 8.57908971900554  3.71539817751554 11.0732540467096  7.38205565862066 11.085378456636  C 8.97616490096837 11.0905746323187  10.4382909718927 10.6211867623133  11.5828325365797 9.83656423422303  C 11.5828325365797 9.83656423422303  16.3507246042484 13.837619509915  16.3507246042484 13.837619509915  C 16.6085042359346 14.0541268300283  17.0250761207396 14.0541268300283  17.2828557524259 13.837619509915  Z M 12.6881915972503 5.541059003177  C 12.6881915972503 7.9901898082976  10.3248679339508 9.97512891909548  7.40886474031602 9.97512891909548  C 4.49286154668124 9.97512891909548  2.12953788338177 7.9901898082976  2.12953788338177 5.541059003177  C 2.12953788338177 3.09192819805639  4.49286154668124 1.10698908725851  7.40886474031602 1.10698908725851  C 10.3248679339508 1.10698908725851  12.6881915972503 3.09192819805639  12.6881915972503 5.541059003177  Z " fill-rule="nonzero" fill="#000000" stroke="none" fill-opacity="0.250980392156863" transform="matrix(1 0 0 1 260 284 )" />
  </g>
</svg>