<?xml version="1.0" encoding="utf-8"?>
<svg version="1.1" xmlns:xlink="http://www.w3.org/1999/xlink" width="7px" height="12px" xmlns="http://www.w3.org/2000/svg">
  <g transform="matrix(1 0 0 1 -276 -325 )">
    <path d="M 0.131749218443602 11.7450874164404  C 0.250875577693085 11.9124226706789  0.423403408330267 12  0.598669775961691 12  C 0.730119551685259 12  0.862938595905946 11.9499558118165  0.973849344172706 11.8498674354496  C 0.973849344172706 11.8498674354496  6.77680923496935 6.51859751302897  6.77680923496935 6.51859751302897  C 6.91784389017276 6.38879539992809  6.99999999999999 6.1933102898364  6.99999999999999 5.98531413269884  C 6.99999999999999 5.77888185644201  6.91784389017276 5.58183286546959  6.77680923496935 5.45359463324944  C 6.77680923496935 5.45359463324944  0.998496177120874 0.150474566682026  0.998496177120874 0.150474566682026  C 0.741073699662221 -0.0856714463087378  0.364524862954085 -0.0387550198867319  0.157765319888891 0.255254585691172  C -0.0489942231763029 0.549264191269076  -0.00791616826268854 0.979331433470798  0.249506309195964 1.21547744646156  C 0.249506309195964 1.21547744646156  5.44724952426536 5.98687801357957  5.44724952426536 5.98687801357957  C 5.44724952426536 5.98687801357957  0.223490207750675 10.7848645556701  0.223490207750675 10.7848645556701  C -0.0339322697079776 11.0210105686608  -0.0750103246215924 11.4510778108625  0.131749218443602 11.7450874164404  Z " fill-rule="nonzero" fill="#000000" stroke="none" transform="matrix(1 0 0 1 276 325 )" />
  </g>
</svg>