<?xml version="1.0" encoding="utf-8"?>
<svg version="1.1" xmlns:xlink="http://www.w3.org/1999/xlink" width="30px" height="30px" xmlns="http://www.w3.org/2000/svg">
  <g transform="matrix(1 0 0 1 -509 -1254 )">
    <path d="M 509 1254  L 539 1254  L 539 1284  L 509 1284  L 509 1254  " fill-rule="nonzero" fill="#cccccc" stroke="none" />
    <path d="M 511 1256  L 537 1256  L 537 1282  L 511 1282  L 511 1256  " fill-rule="nonzero" fill="#ffffff" stroke="none" />
    <path d="M 526.85 1263  C 525.59 1263  524.6 1262.01  524.6 1260.75  C 524.6 1259.49  525.59 1258.5  526.85 1258.5  C 528.11 1258.5  529.1 1259.49  529.1 1260.75  C 529.1 1262.01  528.11 1263  526.85 1263  " fill-rule="nonzero" fill="#cccccc" stroke="none" />
    <path d="M 512 1281  L 512 1267.8  L 518 1261.8  L 526.4 1266.6  L 531.2 1265.4  L 536 1266.6  L 536 1281  L 512 1281  " fill-rule="nonzero" fill="#169bd5" stroke="none" />
  </g>
</svg>