<?xml version="1.0" encoding="utf-8"?>
<svg version="1.1" xmlns:xlink="http://www.w3.org/1999/xlink" width="15px" height="20px" xmlns="http://www.w3.org/2000/svg">
  <g transform="matrix(1 0 0 1 -492 -59 )">
    <path d="M 14.9291666666667 17.0731707317073  C 14.9291666666667 15.5024390243902  13.8416666666667 14.2292682926829  12.5 14.2292682926829  C 11.8666666666667 14.2292682926829  11.2958333333333 14.5170731707317  10.8625 14.980487804878  L 4.925 10.9268292682927  C 4.97083333333333 10.7073170731707  5 10.4780487804878  5 10.2439024390244  C 5 10.009756097561  4.97083333333333 9.78048780487805  4.925 9.5609756097561  L 10.8 5.54634146341463  C 11.2458333333333 6.03414634146342  11.8416666666667 6.33658536585366  12.5 6.33658536585366  C 13.8791666666667 6.33658536585366  15 5.02439024390244  15 3.40975609756098  C 15 1.79512195121951  13.8791666666667 0.482926829268294  12.5 0.482926829268294  C 11.1208333333333 0.482926829268294  10 1.79512195121951  10 3.40975609756098  C 10 3.64390243902439  10.0291666666667 3.87317073170732  10.075 4.09268292682927  L 4.2 8.10731707317073  C 3.75416666666667 7.61951219512195  3.15833333333333 7.31707317073171  2.5 7.31707317073171  C 1.12083333333333 7.31707317073171  0 8.62926829268293  0 10.2439024390244  C 0 11.8585365853659  1.12083333333333 13.1707317073171  2.5 13.1707317073171  C 3.15833333333333 13.1707317073171  3.75416666666667 12.8682926829268  4.2 12.3804878048781  L 10.1375 16.4341463414634  C 10.0958333333333 16.6390243902439  10.0708333333333 16.8536585365854  10.0708333333333 17.0731707317073  C 10.0708333333333 18.6439024390244  11.1583333333333 19.9170731707317  12.5 19.9170731707317  C 13.8416666666667 19.9170731707317  14.9291666666667 18.6439024390244  14.9291666666667 17.0731707317073  Z " fill-rule="nonzero" fill="#555555" stroke="none" transform="matrix(1 0 0 1 492 59 )" />
  </g>
</svg>