<?xml version="1.0" encoding="utf-8"?>
<svg version="1.1" xmlns:xlink="http://www.w3.org/1999/xlink" width="38px" height="214px" xmlns="http://www.w3.org/2000/svg">
  <g transform="matrix(1 0 0 1 -438 -435 )">
    <path d="M 438.164502164502 635.526946777227  C 438.164502164502 635.526946777227  438.164502164502 440.584699453552  438.164502164502 440.584699453552  C 438.164502164502 437.823275704398  440.403078415348 435.584699453552  443.164502164502 435.584699453552  C 443.164502164502 435.584699453552  471 435.584699453552  471 435.584699453552  C 473.761423749154 435.584699453552  476 437.823275704398  476 440.584699453552  C 476 440.584699453552  476 635.526946777227  476 635.526946777227  C 476 638.288370526381  473.761423749154 640.526946777227  471 640.526946777227  C 471 640.526946777227  466.517625231911 640.526946777227  466.517625231911 640.526946777227  C 466.517625231911 640.526946777227  456.929499072356 648.882900353017  456.929499072356 648.882900353017  C 456.929499072356 648.882900353017  447.517625231911 640.526946777227  447.517625231911 640.526946777227  C 447.517625231911 640.526946777227  443.164502164502 640.526946777227  443.164502164502 640.526946777227  C 440.403078415348 640.526946777227  438.164502164502 638.288370526381  438.164502164502 635.526946777227  Z " fill-rule="nonzero" fill="#2196f3" stroke="none" fill-opacity="0.803921568627451" />
  </g>
</svg>