<?xml version="1.0" encoding="utf-8"?>
<svg version="1.1" xmlns:xlink="http://www.w3.org/1999/xlink" width="17px" height="15px" xmlns="http://www.w3.org/2000/svg">
  <g transform="matrix(1 0 0 1 -125 -56 )">
    <path d="M 10.0716145833333 13.4207589285714  C 10.2044270833333 13.3203125  10.2708333333333 13.1770833333333  10.2708333333333 12.9910714285714  L 10.2708333333333 12.3660714285714  L 10.2708333333333 7.14285714285714  L 10.2708333333333 5  L 6.72916666666667 5  L 6.72916666666667 7.14285714285714  L 6.72916666666667 12.3660714285714  L 6.72916666666667 12.9910714285714  C 6.72916666666667 13.1770833333333  6.79557291666667 13.3203125  6.92838541666667 13.4207589285714  C 7.06119791666667 13.5212053571429  7.23090277777778 13.5714285714286  7.4375 13.5714285714286  L 9.5625 13.5714285714286  C 9.76909722222222 13.5714285714286  9.93880208333333 13.5212053571429  10.0716145833333 13.4207589285714  Z M 4.47135416666667 3.25892857142857  C 4.67795138888889 3.4672619047619  4.92881944444444 3.57142857142857  5.22395833333333 3.57142857142857  L 7.38216145833333 3.57142857142857  L 5.98763020833333 1.77455357142857  C 5.79578993055556 1.54389880952381  5.54123263888889 1.42857142857143  5.22395833333333 1.42857142857143  C 4.92881944444444 1.42857142857143  4.67795138888889 1.53273809523809  4.47135416666667 1.74107142857143  C 4.26475694444444 1.94940476190476  4.16145833333333 2.20238095238095  4.16145833333333 2.5  C 4.16145833333333 2.79761904761905  4.26475694444444 3.05059523809524  4.47135416666667 3.25892857142857  Z M 12.5286458333333 3.25892857142857  C 12.7352430555556 3.05059523809524  12.8385416666667 2.79761904761905  12.8385416666667 2.5  C 12.8385416666667 2.20238095238095  12.7352430555556 1.94940476190476  12.5286458333333 1.74107142857143  C 12.3220486111111 1.53273809523809  12.0711805555556 1.42857142857143  11.7760416666667 1.42857142857143  C 11.4587673611111 1.42857142857143  11.2042100694444 1.54389880952381  11.0123697916667 1.77455357142857  L 9.62890625 3.57142857142857  L 11.7760416666667 3.57142857142857  C 12.0711805555556 3.57142857142857  12.3220486111111 3.4672619047619  12.5286458333333 3.25892857142857  Z M 16.900390625 5.10044642857143  C 16.966796875 5.16741071428572  17 5.25297619047619  17 5.35714285714286  L 17 8.92857142857143  C 17 9.03273809523809  16.966796875 9.11830357142857  16.900390625 9.18526785714286  C 16.833984375 9.25223214285714  16.7491319444444 9.28571428571429  16.6458333333333 9.28571428571429  L 15.5833333333333 9.28571428571429  L 15.5833333333333 13.9285714285714  C 15.5833333333333 14.2261904761905  15.4800347222222 14.4791666666667  15.2734375 14.6875  C 15.0668402777778 14.8958333333333  14.8159722222222 15  14.5208333333333 15  L 2.47916666666667 15  C 2.18402777777778 15  1.93315972222222 14.8958333333333  1.7265625 14.6875  C 1.51996527777778 14.4791666666667  1.41666666666667 14.2261904761905  1.41666666666667 13.9285714285714  L 1.41666666666667 9.28571428571429  L 0.354166666666667 9.28571428571429  C 0.250868055555556 9.28571428571429  0.166015625 9.25223214285714  0.099609375 9.18526785714286  C 0.033203125 9.11830357142857  0 9.03273809523809  0 8.92857142857143  L 0 5.35714285714286  C 0 5.25297619047619  0.033203125 5.16741071428572  0.099609375 5.10044642857143  C 0.166015625 5.03348214285714  0.250868055555556 5  0.354166666666667 5  L 5.22395833333333 5  C 4.53776041666667 5  3.95301649305556 4.7563244047619  3.4697265625 4.26897321428571  C 2.98643663194444 3.78162202380952  2.74479166666667 3.19196428571429  2.74479166666667 2.5  C 2.74479166666667 1.80803571428571  2.98643663194444 1.21837797619047  3.4697265625 0.731026785714286  C 3.95301649305556 0.243675595238095  4.53776041666667 0  5.22395833333333 0  C 6.01345486111111 0  6.63324652777778 0.286458333333331  7.08333333333333 0.859374999999999  L 8.5 2.70089285714286  L 9.91666666666667 0.859374999999999  C 10.3667534722222 0.286458333333331  10.9865451388889 0  11.7760416666667 0  C 12.4622395833333 0  13.0469835069444 0.243675595238095  13.5302734375 0.731026785714286  C 14.0135633680556 1.21837797619047  14.2552083333333 1.80803571428571  14.2552083333333 2.5  C 14.2552083333333 3.19196428571429  14.0135633680556 3.78162202380952  13.5302734375 4.26897321428571  C 13.0469835069444 4.7563244047619  12.4622395833333 5  11.7760416666667 5  L 16.6458333333333 5  C 16.7491319444444 5  16.833984375 5.03348214285714  16.900390625 5.10044642857143  Z " fill-rule="nonzero" fill="#ffffff" stroke="none" transform="matrix(1 0 0 1 125 56 )" />
  </g>
</svg>