<?xml version="1.0" encoding="utf-8"?>
<svg version="1.1" xmlns:xlink="http://www.w3.org/1999/xlink" width="20px" height="20px" xmlns="http://www.w3.org/2000/svg">
  <g transform="matrix(1 0 0 1 -887 -241 )">
    <path d="M 897 241  C 902.6 241  907 245.4  907 251  C 907 256.6  902.6 261  897 261  C 891.4 261  887 256.6  887 251  C 887 245.4  891.4 241  897 241  Z " fill-rule="nonzero" fill="#ffffff" stroke="none" />
    <path d="M 897 241.5  C 902.32 241.5  906.5 245.68  906.5 251  C 906.5 256.32  902.32 260.5  897 260.5  C 891.68 260.5  887.5 256.32  887.5 251  C 887.5 245.68  891.68 241.5  897 241.5  Z " stroke-width="1" stroke="#797979" fill="none" />
  </g>
</svg>