<?xml version="1.0" encoding="utf-8"?>
<svg version="1.1" xmlns:xlink="http://www.w3.org/1999/xlink" width="40px" height="40px" xmlns="http://www.w3.org/2000/svg">
  <defs>
    <filter x="73px" y="50px" width="40px" height="40px" filterUnits="userSpaceOnUse" id="filter13">
      <feOffset dx="1" dy="1" in="SourceAlpha" result="shadowOffsetInner" />
      <feGaussianBlur stdDeviation="2.5" in="shadowOffsetInner" result="shadowGaussian" />
      <feComposite in2="shadowGaussian" operator="atop" in="SourceAlpha" result="shadowComposite" />
      <feColorMatrix type="matrix" values="0 0 0 0 0  0 0 0 0 0  0 0 0 0 0  0 0 0 0.698039215686274 0  " in="shadowComposite" />
    </filter>
    <g id="widget14">
      <path d="M 92 54  C 100.4 54  107 60.6  107 69  C 107 77.4  100.4 84  92 84  C 83.6 84  77 77.4  77 69  C 77 60.6  83.6 54  92 54  Z " fill-rule="nonzero" fill="#009dd9" stroke="none" />
      <path d="M 92 54.5  C 100.12 54.5  106.5 60.88  106.5 69  C 106.5 77.12  100.12 83.5  92 83.5  C 83.88 83.5  77.5 77.12  77.5 69  C 77.5 60.88  83.88 54.5  92 54.5  Z " stroke-width="1" stroke="#ffffff" fill="none" />
    </g>
  </defs>
  <g transform="matrix(1 0 0 1 -73 -50 )">
    <use xlink:href="#widget14" filter="url(#filter13)" />
    <use xlink:href="#widget14" />
  </g>
</svg>