<svg t="1566214797581" class="icon" viewBox="0 0 1024 1024" version="1.1" xmlns="http://www.w3.org/2000/svg" p-id="2037" height="200" width="200"><path d="M995.8 422.9H28.2C14.8 422.9 4 412 4 398.7s10.8-24.2 24.2-24.2h910.4l-269-277.1c-9.3-9.6-9.1-24.9 0.5-34.2 9.6-9.3 24.9-9.1 34.2 0.5l308.9 318.2c6.8 7 8.7 17.3 4.9 26.3-3.8 8.8-12.6 14.7-22.3 14.7z m-641.9 546c9.6-9.3 9.8-24.6 0.5-34.2l-269-277.1h910.4c13.4 0 24.2-10.8 24.2-24.2 0-13.4-10.8-24.2-24.2-24.2H28.2c-9.7 0-18.5 5.8-22.3 14.8-3.8 9-1.9 19.3 4.9 26.3l308.9 318.2c4.7 4.9 11 7.3 17.4 7.3 6.1-0.1 12.1-2.4 16.8-6.9z" p-id="2038" fill="#8a8a8a"></path></svg>