<svg t="1560477570540" class="icon" viewBox="0 0 1024 1024" version="1.1" xmlns="http://www.w3.org/2000/svg" p-id="2081" height="200" width="200"><path d="M512 0C229.376 0 0 229.376 0 512s229.376 512 512 512 512-229.376 512-512S794.624 0 512 0z m202.24 683.52c10.24 10.24 10.24 26.112 0 36.352s-26.112 10.24-36.352 0l-167.936-167.936-167.424 167.424c-10.24 10.24-26.112 10.24-36.352 0s-10.24-26.112 0-36.352l167.424-167.424-168.96-169.984c-10.24-10.24-10.24-26.112 0-36.352s26.112-10.24 36.352 0l169.472 169.472 169.984-169.984c10.24-10.24 26.112-10.24 36.352 0s10.24 26.112 0 36.352l-169.984 169.984 167.424 168.448z" fill="#f44336" p-id="2082"></path></svg>