<svg t="1562841013219" class="icon" viewBox="0 0 1024 1024" version="1.1" xmlns="http://www.w3.org/2000/svg" p-id="15323" height="200" width="200"><path d="M830.8736 349.707378 441.890133 738.668089C433.3568 747.201422 421.774222 752.002844 409.713778 752.002844 397.653333 752.002844 386.070756 747.201422 377.537422 738.668089L193.149156 554.234311C175.354311 536.462222 175.354311 507.653689 193.149156 489.8816 210.921244 472.109511 239.707022 472.109511 257.501867 489.8816L409.713778 642.139022 766.520889 285.354667C784.292978 267.582578 813.101511 267.582578 830.8736 285.354667 848.645689 303.126756 848.645689 331.935289 830.8736 349.707378M512 0C229.239467 0 0 229.239467 0 512 0 794.760533 229.239467 1024 512 1024 794.783289 1024 1024 794.760533 1024 512 1024 229.239467 794.783289 0 512 0" p-id="15324" fill="#8a8a8a"></path></svg>