<?xml version="1.0" encoding="utf-8"?>
<svg version="1.1" xmlns:xlink="http://www.w3.org/1999/xlink" width="15px" height="15px" xmlns="http://www.w3.org/2000/svg">
  <defs>
    <mask fill="white" id="clip13">
      <path d="M 0 15  L 0 5  L 0 0  L 9 0  L 15 0  L 15 15  L 0 15  Z " fill-rule="evenodd" />
    </mask>
  </defs>
  <g transform="matrix(1 0 0 1 -149 -2015 )">
    <path d="M 0 15  L 0 5  L 0 0  L 9 0  L 15 0  L 15 15  L 0 15  Z " fill-rule="nonzero" fill="#ffffff" stroke="none" transform="matrix(1 0 0 1 149 2015 )" />
    <path d="M 0 15  L 0 5  L 0 0  L 9 0  L 15 0  L 15 15  L 0 15  Z " stroke-width="2" stroke="#d7d7d7" fill="none" transform="matrix(1 0 0 1 149 2015 )" mask="url(#clip13)" />
  </g>
</svg>