<?xml version="1.0" encoding="utf-8"?>
<svg version="1.1" xmlns:xlink="http://www.w3.org/1999/xlink" width="10px" height="10px" xmlns="http://www.w3.org/2000/svg">
  <g transform="matrix(1 0 0 1 -1364 -1262 )">
    <path d="M 9.8997995991984 8.90269151138716  C 9.96659986639947 8.97170462387854  10 9.05106970324361  10 9.1407867494824  C 10 9.23050379572119  9.96659986639947 9.30986887508627  9.8997995991984 9.37888198757764  L 9.39879759519038 9.89648033126294  C 9.33199732798931 9.96549344375431  9.25517702070808 10  9.16833667334669 10  C 9.0814963259853 10  9.00467601870407 9.96549344375431  8.93787575150301 9.89648033126294  L 5 5.82815734989648  L 1.06212424849699 9.89648033126294  C 0.995323981295925 9.96549344375431  0.918503674014696 10  0.831663326653307 10  C 0.744822979291917 10  0.668002672010688 9.96549344375431  0.601202404809619 9.89648033126294  L 0.100200400801603 9.37888198757764  C 0.0334001336005345 9.30986887508627  0 9.23050379572119  0 9.1407867494824  C 0 9.05106970324361  0.0334001336005345 8.97170462387854  0.100200400801603 8.90269151138716  L 4.76953907815631 4.07867494824016  C 4.83633934535738 4.00966183574879  4.91315965263861 3.97515527950311  5 3.97515527950311  C 5.08684034736139 3.97515527950311  5.16366065464262 4.00966183574879  5.23046092184369 4.07867494824016  L 9.8997995991984 8.90269151138716  Z M 9.8997995991984 4.92753623188406  C 9.96659986639947 4.99654934437543  10 5.07591442374051  10 5.1656314699793  C 10 5.25534851621808  9.96659986639947 5.33471359558316  9.8997995991984 5.40372670807453  L 9.39879759519038 5.92132505175983  C 9.33199732798931 5.99033816425121  9.25517702070808 6.02484472049689  9.16833667334669 6.02484472049689  C 9.0814963259853 6.02484472049689  9.00467601870407 5.99033816425121  8.93787575150301 5.92132505175983  L 5 1.85300207039337  L 1.06212424849699 5.92132505175983  C 0.995323981295925 5.99033816425121  0.918503674014696 6.02484472049689  0.831663326653307 6.02484472049689  C 0.744822979291917 6.02484472049689  0.668002672010688 5.99033816425121  0.601202404809619 5.92132505175983  L 0.100200400801603 5.40372670807453  C 0.0334001336005345 5.33471359558316  0 5.25534851621808  0 5.1656314699793  C 0 5.07591442374051  0.0334001336005345 4.99654934437543  0.100200400801603 4.92753623188406  L 4.76953907815631 0.10351966873706  C 4.83633934535738 0.0345065562456859  4.91315965263861 0  5 0  C 5.08684034736139 0  5.16366065464262 0.0345065562456859  5.23046092184369 0.10351966873706  L 9.8997995991984 4.92753623188406  Z " fill-rule="nonzero" fill="#2196f3" stroke="none" transform="matrix(1 0 0 1 1364 1262 )" />
  </g>
</svg>