<?xml version="1.0" encoding="utf-8"?>
<svg version="1.1" xmlns:xlink="http://www.w3.org/1999/xlink" width="38px" height="214px" xmlns="http://www.w3.org/2000/svg">
  <g transform="matrix(1 0 0 1 -867 -985 )">
    <path d="M 867.164502164502 1185.52694677723  C 867.164502164502 1185.52694677723  867.164502164502 990.584699453552  867.164502164502 990.584699453552  C 867.164502164502 987.823275704398  869.403078415348 985.584699453552  872.164502164502 985.584699453552  C 872.164502164502 985.584699453552  900 985.584699453552  900 985.584699453552  C 902.761423749154 985.584699453552  905 987.823275704398  905 990.584699453552  C 905 990.584699453552  905 1185.52694677723  905 1185.52694677723  C 905 1188.28837052638  902.761423749154 1190.52694677723  900 1190.52694677723  C 900 1190.52694677723  895.517625231911 1190.52694677723  895.517625231911 1190.52694677723  C 895.517625231911 1190.52694677723  885.929499072356 1198.88290035302  885.929499072356 1198.88290035302  C 885.929499072356 1198.88290035302  876.517625231911 1190.52694677723  876.517625231911 1190.52694677723  C 876.517625231911 1190.52694677723  872.164502164502 1190.52694677723  872.164502164502 1190.52694677723  C 869.403078415348 1190.52694677723  867.164502164502 1188.28837052638  867.164502164502 1185.52694677723  Z " fill-rule="nonzero" fill="#2196f3" stroke="none" fill-opacity="0.803921568627451" />
  </g>
</svg>