<?xml version="1.0" encoding="utf-8"?>
<svg version="1.1" xmlns:xlink="http://www.w3.org/1999/xlink" width="12px" height="12px" viewBox="197 798.5  12 12" xmlns="http://www.w3.org/2000/svg">
  <path d="M 203 798.5  C 206.36 798.5  209 801.14  209 804.5  C 209 807.86  206.36 810.5  203 810.5  C 199.64 810.5  197 807.86  197 804.5  C 197 801.14  199.64 798.5  203 798.5  Z " fill-rule="nonzero" fill="#ffffff" stroke="none" />
  <path d="M 203 799  C 206.08 799  208.5 801.42  208.5 804.5  C 208.5 807.58  206.08 810  203 810  C 199.92 810  197.5 807.58  197.5 804.5  C 197.5 801.42  199.92 799  203 799  Z " stroke-width="1" stroke="#797979" fill="none" />
  <path d="M 203 807.5  C 201.32 807.5  200 806.18  200 804.5  C 200 802.82  201.32 801.5  203 801.5  C 204.68 801.5  206 802.82  206 804.5  C 206 806.18  204.68 807.5  203 807.5  " fill-rule="nonzero" fill="#797979" stroke="none" />
</svg>