<?xml version="1.0" encoding="utf-8"?>
<svg version="1.1" xmlns:xlink="http://www.w3.org/1999/xlink" width="38px" height="265px" xmlns="http://www.w3.org/2000/svg">
  <g transform="matrix(1 0 0 1 -1237 -1061 )">
    <path d="M 1237.1645021645 1310.50766773816  C 1237.1645021645 1310.50766773816  1237.1645021645 1066.72404371585  1237.1645021645 1066.72404371585  C 1237.1645021645 1063.96261996669  1239.40307841535 1061.72404371585  1242.1645021645 1061.72404371585  C 1242.1645021645 1061.72404371585  1270 1061.72404371585  1270 1061.72404371585  C 1272.76142374915 1061.72404371585  1275 1063.96261996669  1275 1066.72404371585  C 1275 1066.72404371585  1275 1310.50766773816  1275 1310.50766773816  C 1275 1313.26909148731  1272.76142374915 1315.50766773816  1270 1315.50766773816  C 1270 1315.50766773816  1265.51762523191 1315.50766773816  1265.51762523191 1315.50766773816  C 1265.51762523191 1315.50766773816  1255.92949907236 1325.8549934278  1255.92949907236 1325.8549934278  C 1255.92949907236 1325.8549934278  1246.51762523191 1315.50766773816  1246.51762523191 1315.50766773816  C 1246.51762523191 1315.50766773816  1242.1645021645 1315.50766773816  1242.1645021645 1315.50766773816  C 1239.40307841535 1315.50766773816  1237.1645021645 1313.26909148731  1237.1645021645 1310.50766773816  Z " fill-rule="nonzero" fill="#2196f3" stroke="none" fill-opacity="0.803921568627451" />
  </g>
</svg>