<?xml version="1.0" encoding="utf-8"?>
<svg version="1.1" xmlns:xlink="http://www.w3.org/1999/xlink" width="40px" height="40px" xmlns="http://www.w3.org/2000/svg">
  <defs>
    <filter x="1240px" y="40px" width="40px" height="40px" filterUnits="userSpaceOnUse" id="filter23">
      <feOffset dx="1" dy="1" in="SourceAlpha" result="shadowOffsetInner" />
      <feGaussianBlur stdDeviation="2.5" in="shadowOffsetInner" result="shadowGaussian" />
      <feComposite in2="shadowGaussian" operator="atop" in="SourceAlpha" result="shadowComposite" />
      <feColorMatrix type="matrix" values="0 0 0 0 0  0 0 0 0 0  0 0 0 0 0  0 0 0 0.698039215686274 0  " in="shadowComposite" />
    </filter>
    <g id="widget24">
      <path d="M 1259 44  C 1267.4 44  1274 50.6  1274 59  C 1274 67.4  1267.4 74  1259 74  C 1250.6 74  1244 67.4  1244 59  C 1244 50.6  1250.6 44  1259 44  Z " fill-rule="nonzero" fill="#ff001f" stroke="none" fill-opacity="0.870588235294118" />
      <path d="M 1259 44.5  C 1267.12 44.5  1273.5 50.88  1273.5 59  C 1273.5 67.12  1267.12 73.5  1259 73.5  C 1250.88 73.5  1244.5 67.12  1244.5 59  C 1244.5 50.88  1250.88 44.5  1259 44.5  Z " stroke-width="1" stroke="#ffffff" fill="none" />
    </g>
  </defs>
  <g transform="matrix(1 0 0 1 -1240 -40 )">
    <use xlink:href="#widget24" filter="url(#filter23)" />
    <use xlink:href="#widget24" />
  </g>
</svg>