<?xml version="1.0" encoding="utf-8"?>
<svg version="1.1" xmlns:xlink="http://www.w3.org/1999/xlink" width="10px" height="10px" xmlns="http://www.w3.org/2000/svg">
  <g transform="matrix(1 0 0 1 -1627 -161 )">
    <path d="M 9.8997995991984 4.59627329192547  C 9.96659986639947 4.66528640441684  10 4.74465148378192  10 4.8343685300207  C 10 4.92408557625949  9.96659986639947 5.00345065562457  9.8997995991984 5.07246376811594  L 5.23046092184369 9.89648033126294  C 5.16366065464262 9.96549344375431  5.08684034736139 10  5 10  C 4.91315965263861 10  4.83633934535738 9.96549344375431  4.76953907815631 9.89648033126294  L 0.100200400801603 5.07246376811594  C 0.0334001336005345 5.00345065562457  0 4.92408557625949  0 4.8343685300207  C 0 4.74465148378192  0.0334001336005345 4.66528640441684  0.100200400801603 4.59627329192547  L 0.601202404809619 4.07867494824016  C 0.668002672010688 4.00966183574879  0.744822979291917 3.97515527950311  0.831663326653307 3.97515527950311  C 0.918503674014696 3.97515527950311  0.995323981295925 4.00966183574879  1.06212424849699 4.07867494824016  L 5 8.14699792960663  L 8.93787575150301 4.07867494824016  C 9.00467601870407 4.00966183574879  9.0814963259853 3.97515527950311  9.16833667334669 3.97515527950311  C 9.25517702070808 3.97515527950311  9.33199732798931 4.00966183574879  9.39879759519038 4.07867494824016  L 9.8997995991984 4.59627329192547  Z M 9.8997995991984 0.62111801242236  C 9.96659986639947 0.690131124913732  10 0.769496204278812  10 0.859213250517599  C 10 0.948930296756382  9.96659986639947 1.02829537612146  9.8997995991984 1.09730848861284  L 5.23046092184369 5.92132505175983  C 5.16366065464262 5.99033816425121  5.08684034736139 6.02484472049689  5 6.02484472049689  C 4.91315965263861 6.02484472049689  4.83633934535738 5.99033816425121  4.76953907815631 5.92132505175983  L 0.100200400801603 1.09730848861284  C 0.0334001336005345 1.02829537612146  0 0.948930296756382  0 0.859213250517599  C 0 0.769496204278812  0.0334001336005345 0.690131124913732  0.100200400801603 0.62111801242236  L 0.601202404809619 0.10351966873706  C 0.668002672010688 0.0345065562456859  0.744822979291917 0  0.831663326653307 0  C 0.918503674014696 0  0.995323981295925 0.0345065562456859  1.06212424849699 0.10351966873706  L 5 4.17184265010352  L 8.93787575150301 0.10351966873706  C 9.00467601870407 0.0345065562456859  9.0814963259853 0  9.16833667334669 0  C 9.25517702070808 0  9.33199732798931 0.0345065562456859  9.39879759519038 0.10351966873706  L 9.8997995991984 0.62111801242236  Z " fill-rule="nonzero" fill="#2196f3" stroke="none" transform="matrix(1 0 0 1 1627 161 )" />
  </g>
</svg>