<?xml version="1.0" encoding="utf-8"?>
<svg version="1.1" xmlns:xlink="http://www.w3.org/1999/xlink" width="12px" height="12px" viewBox="433 799.5  12 12" xmlns="http://www.w3.org/2000/svg">
  <path d="M 439 799.5  C 442.36 799.5  445 802.14  445 805.5  C 445 808.86  442.36 811.5  439 811.5  C 435.64 811.5  433 808.86  433 805.5  C 433 802.14  435.64 799.5  439 799.5  Z " fill-rule="nonzero" fill="#ffffff" stroke="none" />
  <path d="M 439 800  C 442.08 800  444.5 802.42  444.5 805.5  C 444.5 808.58  442.08 811  439 811  C 435.92 811  433.5 808.58  433.5 805.5  C 433.5 802.42  435.92 800  439 800  Z " stroke-width="1" stroke="#797979" fill="none" />
  <path d="M 439 808.5  C 437.32 808.5  436 807.18  436 805.5  C 436 803.82  437.32 802.5  439 802.5  C 440.68 802.5  442 803.82  442 805.5  C 442 807.18  440.68 808.5  439 808.5  " fill-rule="nonzero" fill="#797979" stroke="none" />
</svg>