<?xml version="1.0" encoding="utf-8"?>
<svg version="1.1" xmlns:xlink="http://www.w3.org/1999/xlink" width="38px" height="159px" xmlns="http://www.w3.org/2000/svg">
  <g transform="matrix(1 0 0 1 -808 -788 )">
    <path d="M 808.164502164502 935.704600642893  C 808.164502164502 935.704600642893  808.164502164502 793.434426229508  808.164502164502 793.434426229508  C 808.164502164502 790.673002480354  810.403078415348 788.434426229508  813.164502164502 788.434426229508  C 813.164502164502 788.434426229508  841 788.434426229508  841 788.434426229508  C 843.761423749154 788.434426229508  846 790.673002480354  846 793.434426229508  C 846 793.434426229508  846 935.704600642893  846 935.704600642893  C 846 938.466024392047  843.761423749154 940.704600642893  841 940.704600642893  C 841 940.704600642893  836.517625231911 940.704600642893  836.517625231911 940.704600642893  C 836.517625231911 940.704600642893  826.929499072356 946.912996056681  826.929499072356 946.912996056681  C 826.929499072356 946.912996056681  817.517625231911 940.704600642893  817.517625231911 940.704600642893  C 817.517625231911 940.704600642893  813.164502164502 940.704600642893  813.164502164502 940.704600642893  C 810.403078415348 940.704600642893  808.164502164502 938.466024392047  808.164502164502 935.704600642893  Z " fill-rule="nonzero" fill="#2196f3" stroke="none" fill-opacity="0.803921568627451" />
  </g>
</svg>