<?xml version="1.0" encoding="utf-8"?>
<svg version="1.1" xmlns:xlink="http://www.w3.org/1999/xlink" width="38px" height="214px" xmlns="http://www.w3.org/2000/svg">
  <g transform="matrix(1 0 0 1 -574 -498 )">
    <path d="M 574.164502164502 698.526946777227  C 574.164502164502 698.526946777227  574.164502164502 503.584699453552  574.164502164502 503.584699453552  C 574.164502164502 500.823275704398  576.403078415348 498.584699453552  579.164502164502 498.584699453552  C 579.164502164502 498.584699453552  607 498.584699453552  607 498.584699453552  C 609.761423749154 498.584699453552  612 500.823275704398  612 503.584699453552  C 612 503.584699453552  612 698.526946777227  612 698.526946777227  C 612 701.288370526381  609.761423749154 703.526946777227  607 703.526946777227  C 607 703.526946777227  602.517625231911 703.526946777227  602.517625231911 703.526946777227  C 602.517625231911 703.526946777227  592.929499072356 711.882900353017  592.929499072356 711.882900353017  C 592.929499072356 711.882900353017  583.517625231911 703.526946777227  583.517625231911 703.526946777227  C 583.517625231911 703.526946777227  579.164502164502 703.526946777227  579.164502164502 703.526946777227  C 576.403078415348 703.526946777227  574.164502164502 701.288370526381  574.164502164502 698.526946777227  Z " fill-rule="nonzero" fill="#2196f3" stroke="none" fill-opacity="0.803921568627451" />
  </g>
</svg>